<?xml version="1.0" encoding="UTF-8"?>
<!DOCTYPE svg PUBLIC "-//W3C//DTD SVG 1.1//EN" "http://www.w3.org/Graphics/SVG/1.1/DTD/svg11.dtd">
<!-- Creator: CorelDRAW X7 -->
<svg xmlns="http://www.w3.org/2000/svg" xml:space="preserve" width="3.19759in" height="0.723945in" version="1.1" style="shape-rendering:geometricPrecision; text-rendering:geometricPrecision; image-rendering:optimizeQuality; fill-rule:evenodd; clip-rule:evenodd"
viewBox="0 0 1368 310"
 xmlns:xlink="http://www.w3.org/1999/xlink">
 <defs>
  <style type="text/css">
   <![CDATA[
    .fil1 {fill:#075DA7}
    .fil0 {fill:#6FBCE9}
   ]]>
  </style>
 </defs>
 <g id="Layer_x0020_1">
  <metadata id="CorelCorpID_0Corel-Layer"/>
  <path class="fil0" d="M694 112c-8,-5 -14,-16 -34,-26 -30,-15 -69,-17 -100,-1 -17,8 -21,12 -33,25 -36,35 -43,84 -25,130 3,6 6,12 10,17 8,13 15,20 26,29 40,31 97,32 139,1 7,-5 9,-8 15,-14 18,-17 33,-44 33,-79l0 -193 -31 0 0 111zm-87 -10c48,0 88,39 88,87 0,49 -40,88 -88,88 -48,0 -87,-39 -87,-88 0,-48 39,-87 87,-87z"/>
  <path class="fil1" d="M1135 190c0,65 55,118 106,118 25,0 42,0 65,-12 18,-11 23,-20 30,-25l0 33 32 0 0 -124c0,-31 -14,-49 -29,-69 -6,-7 -9,-8 -15,-13 -21,-17 -45,-26 -74,-26 -66,0 -115,56 -115,118zm116 -88c48,0 87,39 87,87 0,49 -39,88 -87,88 -48,0 -87,-39 -87,-88 0,-48 39,-87 87,-87z"/>
  <path class="fil1" d="M223 183l0 16c0,54 53,109 108,109 26,0 36,0 61,-12 17,-9 24,-19 32,-25l0 33 30 0 0 -128c-3,-41 -28,-74 -64,-92 -81,-40 -167,26 -167,99zm114 -81c48,0 87,39 87,87 0,49 -39,88 -87,88 -48,0 -87,-39 -87,-88 0,-48 39,-87 87,-87z"/>
  <path class="fil1" d="M0 304l34 0 0 -121 79 0c47,0 94,-39 90,-95 -1,-23 -9,-42 -24,-57 -17,-17 -45,-31 -77,-31l-102 0 0 304zm32 -275l75 0c35,0 63,28 63,63l0 0c0,34 -28,63 -63,63l-75 0 0 -126z"/>
  <path class="fil1" d="M989 309c31,0 54,-10 72,-24 16,-11 40,-39 40,-57 -39,0 -31,-2 -38,10 -29,51 -99,50 -134,14l-15 -22c-5,-10 -6,-17 -9,-29l202 0c0,-35 0,-56 -26,-86 -14,-16 -28,-28 -50,-36 -23,-8 -49,-10 -74,-3 -11,4 -20,8 -29,14 -17,11 -31,27 -42,44 -2,4 -5,11 -6,15 -24,61 11,131 72,153 8,3 26,7 37,7zm-1 -207c43,0 79,31 86,73l-172 0c7,-42 43,-73 86,-73z"/>
  <path class="fil1" d="M786 105l0 -27 -30 0 0 226 33 0 0 -134c0,-10 1,-20 4,-27 7,-19 30,-38 55,-38l0 -31c-44,0 -52,23 -62,31z"/>
 </g>
</svg>
